<?xml version="1.0" encoding="UTF-8"?>
<svg id="Layer_1" data-name="Layer 1" xmlns="http://www.w3.org/2000/svg" viewBox="0 0 56 42.11">
  <defs>
    <style>
      .cls-1 {
        fill: none;
        stroke: #000;
        stroke-miterlimit: 10;
        stroke-width: 3px;
      }
    </style>
  </defs>
  <g>
    <path class="cls-1" d="M45.2,30.21c1.5-2.8,2.3-5.9,2.3-9.2s-.8-6.5-2.3-9.2"/>
    <path class="cls-1" d="M10.8,11.81c-1.5,2.8-2.3,5.9-2.3,9.2s.8,6.5,2.3,9.2"/>
    <path class="cls-1" d="M51.2,33.81c2.1-3.8,3.3-8.2,3.3-12.8s-1.2-9-3.3-12.8"/>
    <path class="cls-1" d="M4.8,8.21c-2.1,3.8-3.3,8.1-3.3,12.8s1.2,9,3.3,12.8"/>
  </g>
  <g>
    <path d="M29.2,6.91c1.9,.2,3.6-1.3,3.7-3.2,.1-1.9-1.3-3.6-3.2-3.7-1.9-.1-3.6,1.3-3.7,3.2-.1,1.9,1.3,3.6,3.2,3.7"/>
    <path d="M26.3,8.41c.7-.5,1.5-.8,2.4-.7,1.2,.1,2.2,.8,2.8,1.7l3.5,7,4.8,3.3c.4,.3,.7,.8,.6,1.4-.1,.9-.8,1.5-1.7,1.4-.3,0-.5-.1-.7-.2l-5.2-3.6c-.2-.1-.3-.3-.4-.5l-1.3-2.6-1.6,6.9,6.2,7.3c.1,.2,.2,.5,.3,.8l1.7,8.8v.5c-.1,1.3-1.2,2.3-2.5,2.2-1.1-.1-1.9-.9-2.1-1.9l-1.6-8.2-5-5.5-1.2,5.3c0,.3-.4,.8-.5,1l-4.8,8.1c-.5,.7-1.3,1.2-2.2,1.1-1.3-.1-2.3-1.2-2.2-2.5,0-.4,.2-.8,.3-1l4.5-7.5,3.7-16.5-2.4,2-1.3,5.9c-.2,.8-.9,1.4-1.7,1.3-.9-.1-1.5-.8-1.4-1.7v-.2l1.5-6.9c.1-.3,.3-.6,.5-.8l7-5.7"/>
  </g>
</svg>